<svg xmlns="http://www.w3.org/2000/svg" aria-hidden="true" style="position:absolute;width:0;height:0;overflow:hidden">
  <defs>
        <symbol id="icon-alcove" viewBox="0 0 32 32">
      <path d="M6.857 2.286v4.571H2.286V2.286h4.571zm2.286 27.428v-4.571a2.287 2.287 0 0 0-2.285-2.285H2.287a2.287 2.287 0 0 0-2.285 2.285v4.571a2.287 2.287 0 0 0 2.285 2.285h4.571a2.287 2.287 0 0 0 2.285-2.285zm0-11.428v-4.571a2.287 2.287 0 0 0-2.285-2.285H2.287a2.287 2.287 0 0 0-2.285 2.285v4.571a2.287 2.287 0 0 0 2.285 2.285h4.571a2.287 2.287 0 0 0 2.285-2.285zm0-11.429V2.286A2.287 2.287 0 0 0 6.858.001H2.287A2.287 2.287 0 0 0 .002 2.286v4.571a2.287 2.287 0 0 0 2.285 2.285h4.571a2.287 2.287 0 0 0 2.285-2.285zm11.428 22.857v-4.571a2.287 2.287 0 0 0-2.285-2.285h-4.571a2.287 2.287 0 0 0-2.285 2.285v4.571a2.287 2.287 0 0 0 2.285 2.285h4.571a2.287 2.287 0 0 0 2.285-2.285zm0-11.428v-4.571a2.287 2.287 0 0 0-2.285-2.285h-4.571a2.287 2.287 0 0 0-2.285 2.285v4.571a2.287 2.287 0 0 0 2.285 2.285h4.571a2.287 2.287 0 0 0 2.285-2.285zm0-11.429V2.286A2.287 2.287 0 0 0 18.286.001h-4.571a2.287 2.287 0 0 0-2.285 2.285v4.571a2.287 2.287 0 0 0 2.285 2.285h4.571a2.287 2.287 0 0 0 2.285-2.285zm-2.285-4.571v4.571h-4.571V2.286h4.571zm11.428 0v4.571h-4.571V2.286h4.571zM6.857 13.714v4.571H2.286v-4.571h4.571zm11.429 0v4.571h-4.571v-4.571h4.571zm11.428 0h-4.571v4.571h4.571v-4.571zM6.857 25.143v4.571H2.286v-4.571h4.571zm11.429 0v4.571h-4.571v-4.571h4.571zm11.428 0v4.571h-4.571v-4.571h4.571zM25.143 0a2.287 2.287 0 0 0-2.285 2.285v4.571a2.287 2.287 0 0 0 2.285 2.285h4.571a2.287 2.287 0 0 0 2.285-2.285V2.285A2.287 2.287 0 0 0 29.714 0h-4.571zm-2.286 13.714a2.287 2.287 0 0 1 2.285-2.285h4.571a2.287 2.287 0 0 1 2.285 2.285v4.571a2.287 2.287 0 0 1-2.285 2.285h-4.571a2.287 2.287 0 0 1-2.285-2.285v-4.571zm2.286 9.143a2.287 2.287 0 0 0-2.285 2.285v4.571a2.287 2.287 0 0 0 2.285 2.285h4.571a2.287 2.287 0 0 0 2.285-2.285v-4.571a2.287 2.287 0 0 0-2.285-2.285h-4.571z"/>
    </symbol>
    <symbol id="icon-fullyIntegrated" viewBox="0 0 32 32">
      <path d="M0 3.429A3.428 3.428 0 0 1 3.428.001h6.857a3.428 3.428 0 0 1 3.428 3.428v6.857a3.428 3.428 0 0 1-3.428 3.428H3.428A3.428 3.428 0 0 1 0 10.286V3.429zm3.429-1.143a1.14 1.14 0 0 0-1.143 1.143v6.857a1.14 1.14 0 0 0 1.143 1.143h6.857a1.14 1.14 0 0 0 1.143-1.143V3.429a1.14 1.14 0 0 0-1.143-1.143H3.429zm14.857 1.143A3.428 3.428 0 0 1 21.714.001h6.857a3.428 3.428 0 0 1 3.428 3.428v6.857a3.428 3.428 0 0 1-3.428 3.428h-6.857a3.428 3.428 0 0 1-3.428-3.428V3.429zm3.428-1.143a1.14 1.14 0 0 0-1.143 1.143v6.857a1.14 1.14 0 0 0 1.143 1.143h6.857a1.14 1.14 0 0 0 1.143-1.143V3.429a1.14 1.14 0 0 0-1.143-1.143h-6.857zM0 21.714a3.428 3.428 0 0 1 3.428-3.428h6.857a3.428 3.428 0 0 1 3.428 3.428v6.857a3.428 3.428 0 0 1-3.428 3.428H3.428A3.428 3.428 0 0 1 0 28.571v-6.857zm3.429-1.143a1.14 1.14 0 0 0-1.143 1.143v6.857a1.14 1.14 0 0 0 1.143 1.143h6.857a1.14 1.14 0 0 0 1.143-1.143v-6.857a1.14 1.14 0 0 0-1.143-1.143H3.429zm14.857 1.143a3.428 3.428 0 0 1 3.428-3.428h6.857a3.428 3.428 0 0 1 3.428 3.428v6.857a3.428 3.428 0 0 1-3.428 3.428h-6.857a3.428 3.428 0 0 1-3.428-3.428v-6.857zm3.428-1.143a1.14 1.14 0 0 0-1.143 1.143v6.857a1.14 1.14 0 0 0 1.143 1.143h6.857a1.14 1.14 0 0 0 1.143-1.143v-6.857a1.14 1.14 0 0 0-1.143-1.143h-6.857z"/>
    </symbol>
    <symbol id="icon-van" viewBox="0 0 32 32">
      <path d="M12 2H2v28h10V2zm18 0H20v10h10V2zm0 18v10H20V20h10zM0 2a2 2 0 0 1 2-2h10a2 2 0 0 1 2 2v28a2 2 0 0 1-2 2H2a2 2 0 0 1-2-2V2zm18 0a2 2 0 0 1 2-2h10a2 2 0 0 1 2 2v10a2 2 0 0 1-2 2H20a2 2 0 0 1-2-2V2zm2 16a2 2 0 0 0-2 2v10a2 2 0 0 0 2 2h10a2 2 0 0 0 2-2V20a2 2 0 0 0-2-2H20z"/>
    </symbol>
    <symbol id="icon-TV" viewBox="0 0 41 32">
      <path d="M0 5.12S0 0 5.12 0h30.72s5.12 0 5.12 5.12v15.36s0 5.12-5.12 5.12H25.6c0 1.707.213 2.987.64 3.84h1.92a1.28 1.28 0 0 1 0 2.56H12.8a1.28 1.28 0 0 1 0-2.56h1.92c.427-.853.64-2.133.64-3.84H5.12S0 25.6 0 20.48V5.12zm3.579-2.189a1.95 1.95 0 0 0-.65.773 3.838 3.838 0 0 0-.369 1.441v15.334c0 .832.2 1.285.371 1.541.179.266.437.483.773.65.432.207.899.331 1.377.366l.064.003h30.694c.832 0 1.285-.2 1.541-.371a1.95 1.95 0 0 0 .65-.773c.207-.432.331-.899.366-1.377l.003-.064V5.12c0-.832-.2-1.285-.371-1.541a1.95 1.95 0 0 0-.773-.65 3.838 3.838 0 0 0-1.441-.369H5.12c-.832 0-1.285.2-1.541.371z"/>
    </symbol>
    <symbol id="icon-map" viewBox="0 0 32 32">
      <path d="M31.634.226A.991.991 0 0 1 32 1v28a.999.999 0 0 1-.804.98l-10 2a.995.995 0 0 1-.392 0L11 30.02l-9.804 1.96a.995.995 0 0 1-1.1-.552A1.003 1.003 0 0 1 0 31V3a.999.999 0 0 1 .804-.98l10-2a.995.995 0 0 1 .392 0L21 1.98 30.804.02a.996.996 0 0 1 .83.206zM20 3.82l-8-1.6v25.96l8 1.6V3.82zm2 25.96 8-1.6V2.22l-8 1.6v25.96zm-12-1.6V2.22l-8 1.6v25.96l8-1.6z"/>
    </symbol>
  </defs>
</svg>