<?xml version="1.0" encoding="iso-8859-1"?>
<!-- Uploaded to: SVG Repo, www.svgrepo.com, Generator: SVG Repo Mixer Tools -->
<svg version="1.1" id="Layer_1" xmlns="http://www.w3.org/2000/svg" xmlns:xlink="http://www.w3.org/1999/xlink" 
	 viewBox="0 0 511.99 511.99" xml:space="preserve">
<path style="fill:#E6E9ED;" d="M501.318,367.996H330.649v-221.3l94.217,12.718l41.094,82.975l40.124,20.07
	c3.609,1.805,5.906,5.5,5.906,9.538v85.343C511.99,363.216,507.209,367.996,501.318,367.996z"/>
<path style="fill:#F6BB42;" d="M159.997,122.665H74.655c-5.891,0-10.656-4.773-10.656-10.664s4.766-10.664,10.656-10.664h85.342
	c5.875,0,10.656,4.773,10.656,10.664S165.871,122.665,159.997,122.665z"/>
<polygon style="fill:#4FC2E9;" points="465.96,242.39 424.866,159.414 330.649,146.696 330.649,242.39 "/>
<path style="fill:#FFCE54;" d="M458.647,112.001H10.656C4.765,112.001,0,116.774,0,122.665v234.676
	c0,5.875,4.766,10.655,10.656,10.655h319.993c5.891,0,10.672-4.78,10.672-10.655V176h117.326c5.891,0,10.672-4.773,10.672-10.664
	v-42.671C469.319,116.775,464.538,112.001,458.647,112.001z"/>
<g>
	<path style="fill:#434A54;" d="M159.997,303.998c-29.421,0-53.343,23.921-53.343,53.343c0,29.405,23.921,53.312,53.343,53.312
		c29.406,0,53.327-23.906,53.327-53.312C213.324,327.919,189.403,303.998,159.997,303.998z"/>
	<path style="fill:#434A54;" d="M415.992,303.998c-29.421,0-53.343,23.921-53.343,53.343c0,29.405,23.922,53.312,53.343,53.312
		c29.405,0,53.327-23.906,53.327-53.312C469.319,327.919,445.397,303.998,415.992,303.998z"/>
</g>
<rect x="362.645" y="175.995" style="fill:#3BAFDA;" width="21.344" height="66.39"/>
<g>
	<path style="fill:#F5F7FA;" d="M167.528,364.871c-4.156,4.156-10.921,4.156-15.078,0c-4.172-4.155-4.172-10.921,0-15.093
		c4.156-4.156,10.922-4.156,15.078,0C171.7,353.95,171.7,360.716,167.528,364.871z"/>
	<path style="fill:#F5F7FA;" d="M423.522,364.871c-4.156,4.156-10.921,4.156-15.077,0c-4.172-4.155-4.172-10.921,0-15.093
		c4.156-4.156,10.921-4.156,15.077,0C427.694,353.95,427.694,360.716,423.522,364.871z"/>
</g>
<path style="fill:#E6E9ED;" d="M95.998,176H10.656C4.765,176,0,180.773,0,186.664v170.677c0,5.875,4.766,10.655,10.656,10.655
	h85.342c5.875,0,10.656-4.78,10.656-10.655V186.664C106.654,180.773,101.873,176,95.998,176z"/>
<path style="fill:#434A54;" d="M28.874,268.874c-4.172,4.155-10.922,4.155-15.094,0c-4.156-4.164-4.156-10.922,0-15.086
	c4.172-4.164,10.922-4.164,15.094,0C33.031,257.952,33.031,264.71,28.874,268.874z"/>
<path style="fill:#4FC2E9;" d="M287.995,176H138.841c-5.891,0-10.656,4.773-10.656,10.664v63.999
	c0,5.891,4.766,10.672,10.656,10.672h149.154c5.874,0,10.655-4.781,10.655-10.672v-63.999C298.65,180.773,293.869,176,287.995,176z"
	/>
<rect x="202.745" y="175.995" style="fill:#3BAFDA;" width="21.343" height="85.33"/>
</svg>