<svg xmlns="http://www.w3.org/2000/svg" aria-hidden="true" style="position:absolute;width:0;height:0;overflow:hidden">
  <defs>
    <symbol id="icon-Property-1Default" viewBox="0 0 32 32">
      <path fill="#f2f4f7" d="M15.116 1.676a1 1 0 0 1 1.769 0l3.777 7.158c.145.274.408.466.714.519l7.975 1.38a1 1 0 0 1 .547 1.682l-5.641 5.804a1 1 0 0 0-.273.839l1.152 8.01a1 1 0 0 1-1.431 1.04l-7.263-3.571a.998.998 0 0 0-.882 0l-7.262 3.571a1 1 0 0 1-1.431-1.04l1.152-8.01a1 1 0 0 0-.273-.839l-5.64-5.804a1 1 0 0 1 .547-1.682l7.974-1.38a.998.998 0 0 0 .714-.519l3.776-7.158z" style="fill:var(--color1, #f2f4f7)"/>
    </symbol>
    <symbol id="icon-Property-1Pressed" viewBox="0 0 32 32">
      <path fill="#ffc531" d="M15.116 1.676a1 1 0 0 1 1.769 0l3.777 7.158c.145.274.408.466.714.519l7.975 1.38a1 1 0 0 1 .547 1.682l-5.641 5.804a1 1 0 0 0-.273.839l1.152 8.01a1 1 0 0 1-1.431 1.04l-7.263-3.571a.998.998 0 0 0-.882 0l-7.262 3.571a1 1 0 0 1-1.431-1.04l1.152-8.01a1 1 0 0 0-.273-.839l-5.64-5.804a1 1 0 0 1 .547-1.682l7.974-1.38a.998.998 0 0 0 .714-.519l3.776-7.158z" style="fill:var(--color2, #ffc531)"/>
    </symbol>
  </defs>
</svg>
